HIERARCHY
ROOT Hips
{
	OFFSET 0.000000 0.000000 0.000000 
	CHANNELS 6 Xposition Yposition Zposition Xrotation Yrotation Zrotation
	JOINT Spine
	{
		OFFSET 0.000000 1.722820 2.584230 
		CHANNELS 3 Xrotation Yrotation Zrotation
		JOINT Spine1
		{
			OFFSET 0.000000 0.598330 3.393290 
			CHANNELS 3 Xrotation Yrotation Zrotation
			JOINT Spine2
			{
				OFFSET 0.000000 0.300310 3.432520 
				CHANNELS 3 Xrotation Yrotation Zrotation
				JOINT Spine3
				{
					OFFSET 0.000000 0.000000 3.445640 
					CHANNELS 3 Xrotation Yrotation Zrotation
					JOINT Neck
					{
						OFFSET 0.000000 -1.292100 9.044790 
						CHANNELS 3 Xrotation Yrotation Zrotation
						JOINT Head
						{
							OFFSET 0.000000 -0.822700 4.665770 
							CHANNELS 3 Xrotation Yrotation Zrotation
							End Site
							{
								OFFSET 0.000000 0.000010 5.577620 
							}
						}
					}
					JOINT RightShoulder
					{
						OFFSET -1.175120 -1.958530 6.345670 
						CHANNELS 3 Xrotation Yrotation Zrotation
						JOINT RightArm
						{
							OFFSET -5.836450 0.000000 0.000000 
							CHANNELS 3 Xrotation Yrotation Zrotation
							JOINT RightForeArm
							{
								OFFSET -10.886420 0.000000 0.000000 
								CHANNELS 3 Xrotation Yrotation Zrotation
								JOINT RightHand
								{
									OFFSET -10.194950 0.000000 0.000000 
									CHANNELS 3 Xrotation Yrotation Zrotation
									JOINT RightHandEnd
									{
										OFFSET -2.735920 0.000000 0.000000 
										CHANNELS 3 Xrotation Yrotation Zrotation
										End Site
										{
											OFFSET -2.735920 0.000000 0.000000 
										}
									}
									JOINT RightHandThumb1
									{
										OFFSET -1.094370 -1.823950 -0.729580 
										CHANNELS 3 Yrotation Xrotation Zrotation
										End Site
										{
											OFFSET -2.642700 -0.708110 0.000000 
										}
									}
								}
							}
						}
					}
					JOINT LeftShoulder
					{
						OFFSET 1.175120 -1.958530 6.345670 
						CHANNELS 3 Xrotation Yrotation Zrotation
						JOINT LeftArm
						{
							OFFSET 5.836450 0.000000 0.000000 
							CHANNELS 3 Xrotation Yrotation Zrotation
							JOINT LeftForeArm
							{
								OFFSET 10.886420 0.000000 0.000000 
								CHANNELS 3 Xrotation Yrotation Zrotation
								JOINT LeftHand
								{
									OFFSET 10.194950 0.000000 0.000000 
									CHANNELS 3 Xrotation Yrotation Zrotation
									JOINT LeftHandEnd
									{
										OFFSET 2.735920 0.000000 0.000000 
										CHANNELS 3 Xrotation Yrotation Zrotation
										End Site
										{
											OFFSET 2.735920 0.000000 0.000000 
										}
									}
									JOINT LeftHandThumb1
									{
										OFFSET 1.094370 -1.823950 -0.729580 
										CHANNELS 3 Yrotation Xrotation Zrotation
										End Site
										{
											OFFSET 2.642700 -0.708110 0.000000 
										}
									}
								}
							}
						}
					}
				}
			}
		}
	}
	JOINT RightUpLeg
	{
		OFFSET -3.486200 0.000000 -1.018440 
		CHANNELS 3 Xrotation Yrotation Zrotation
		JOINT RightLeg
		{
			OFFSET 0.000010 0.000000 -16.688210 
			CHANNELS 3 Xrotation Yrotation Zrotation
			JOINT RightFoot
			{
				OFFSET 0.000010 0.000000 -16.775360 
				CHANNELS 3 Xrotation Yrotation Zrotation
				JOINT RightToeBase
				{
					OFFSET 0.000000 -4.945160 -1.799890 
					CHANNELS 3 Xrotation Yrotation Zrotation
					End Site
					{
						OFFSET 0.000000 -2.820300 -0.000000 
					}
				}
			}
		}
	}
	JOINT LeftUpLeg
	{
		OFFSET 3.486200 0.000000 -1.018440 
		CHANNELS 3 Xrotation Yrotation Zrotation
		JOINT LeftLeg
		{
			OFFSET 0.000010 0.000000 -16.688210 
			CHANNELS 3 Xrotation Yrotation Zrotation
			JOINT LeftFoot
			{
				OFFSET 0.000010 0.000000 -16.775360 
				CHANNELS 3 Xrotation Yrotation Zrotation
				JOINT LeftToeBase
				{
					OFFSET 0.000000 -4.945160 -1.799890 
					CHANNELS 3 Xrotation Yrotation Zrotation
					End Site
					{
						OFFSET 0.000000 -2.820300 -0.000000 
					}
				}
			}
		}
	}
}
MOTION
Frames: 12
Frame Time: 0.008333
-2.410500 36.389099 -6.809200 -90.031700 3.237100 1.830800 -0.912900 -1.636600 -0.641500 0.419800 0.187700 0.023800 0.920600 -3.237700 0.394900 -0.387100 -0.250900 0.306800 1.124000 1.142500 0.376200 -5.143100 2.714600 -3.216000 3.516400 -8.836000 0.842800 40.540001 -48.435299 36.165401 0.000000 0.000000 19.906601 1.264300 -9.080800 -7.910400 0.000000 -0.000000 0.000000 0.000000 0.000000 -0.000000 1.066400 12.673200 -1.120100 31.038700 55.577099 -23.253700 -0.000000 -0.000000 -31.731600 2.178600 6.651400 7.691100 -0.000000 0.000000 0.000000 0.000000 0.000000 0.000000 2.286400 1.993700 -15.891200 13.844800 0.000000 0.000000 -14.531600 -6.739400 -8.316100 0.361700 0.000000 0.000000 1.885300 -14.942900 6.892400 12.675400 0.000000 0.000000 -14.152400 12.213500 1.720000 -0.890800 0.000000 -0.000000 
-2.417500 36.387402 -6.809500 -90.027199 3.273900 1.715300 -0.916000 -1.632700 -0.645200 0.411200 0.191600 0.023300 0.927900 -3.248500 0.362200 -0.383300 -0.256500 0.301700 1.129300 1.133200 0.386200 -5.168900 2.704900 -3.133600 3.519100 -8.838700 0.791600 40.333500 -48.603600 35.994202 0.000000 0.000000 19.925400 1.331600 -9.091600 -7.771900 0.000000 0.000000 -0.000000 0.000000 -0.000000 -0.000000 1.067800 12.673200 -1.142000 31.119699 55.600300 -23.352100 -0.000000 -0.000000 -31.747700 2.195400 6.677700 7.658900 -0.000000 0.000000 -0.000000 0.000000 -0.000000 0.000000 2.255700 1.950800 -15.770700 13.861300 0.000000 0.000000 -14.535100 -6.725700 -8.319400 0.360400 0.000000 0.000000 1.901100 -14.985100 6.947900 12.716500 0.000000 0.000000 -14.199800 12.216600 1.785200 -0.883900 0.000000 -0.000000 
-2.424100 36.385799 -6.809900 -90.022598 3.308600 1.599700 -0.918900 -1.630900 -0.648900 0.403600 0.194700 0.022700 0.935300 -3.253700 0.329700 -0.379500 -0.260400 0.295100 1.137400 1.120600 0.400100 -5.197300 2.694900 -3.047900 3.518100 -8.839400 0.743800 40.202702 -48.735298 35.888901 0.000000 0.000000 19.972200 1.390300 -9.068400 -7.675300 -0.000000 0.000000 0.000000 -0.000000 -0.000000 0.000000 1.068800 12.672400 -1.163000 31.219400 55.624401 -23.466200 -0.000000 -0.000000 -31.763201 2.203700 6.666300 7.647100 0.000000 -0.000000 -0.000000 0.000000 -0.000000 0.000000 2.225100 1.910900 -15.652700 13.878600 0.000000 0.000000 -14.538800 -6.713000 -8.320100 0.359200 0.000000 0.000000 1.918200 -15.023200 6.995000 12.755600 0.000000 0.000000 -14.247800 12.217200 1.858200 -0.877100 0.000000 -0.000000 
-2.430600 36.384102 -6.810300 -90.017799 3.341400 1.484700 -0.921600 -1.631500 -0.652800 0.397300 0.198500 0.022200 0.941800 -3.253600 0.297100 -0.376000 -0.263400 0.287000 1.147000 1.104000 0.418400 -5.225300 2.683900 -2.956300 3.514900 -8.841200 0.701000 40.131500 -48.834599 35.835400 0.000000 0.000000 20.048901 1.446200 -9.033800 -7.632000 0.000000 0.000000 0.000000 0.000000 0.000000 0.000000 1.070300 12.670700 -1.182600 31.327000 55.649502 -23.588301 -0.000000 -0.000000 -31.777599 2.207700 6.640300 7.649800 -0.000000 0.000000 -0.000000 0.000000 -0.000000 -0.000000 2.194200 1.873300 -15.536400 13.896700 0.000000 0.000000 -14.543200 -6.700600 -8.319900 0.358100 0.000000 0.000000 1.935600 -15.058900 7.039600 12.793100 0.000000 0.000000 -14.295000 12.217000 1.932000 -0.870200 0.000000 -0.000000 
-2.437300 36.382500 -6.810800 -90.012199 3.372700 1.370900 -0.923600 -1.634700 -0.657200 0.391700 0.205100 0.022000 0.946900 -3.250100 0.263900 -0.372800 -0.266700 0.278100 1.156000 1.084800 0.440800 -5.248400 2.671300 -2.858100 3.510900 -8.845100 0.661700 40.104000 -48.905899 35.822201 0.000000 0.000000 20.151800 1.507900 -8.998800 -7.632500 0.000000 0.000000 -0.000000 0.000000 0.000000 -0.000000 1.072200 12.668200 -1.204100 31.439400 55.676899 -23.711500 -0.000000 -0.000000 -31.793900 2.209200 6.604400 7.666300 -0.000000 -0.000000 0.000000 0.000000 -0.000000 -0.000000 2.162200 1.836900 -15.421200 13.916000 0.000000 0.000000 -14.548700 -6.688100 -8.319800 0.357300 0.000000 0.000000 1.952100 -15.093500 7.086700 12.830000 0.000000 0.000000 -14.340500 12.217300 2.001900 -0.863500 0.000000 -0.000000 
-2.443900 36.380798 -6.811300 -90.005203 3.402400 1.257400 -0.925900 -1.640700 -0.662200 0.386200 0.213600 0.022000 0.951500 -3.243500 0.229900 -0.369400 -0.269700 0.268800 1.163800 1.064600 0.465900 -5.265300 2.656600 -2.752800 3.505100 -8.848400 0.628300 40.104198 -48.959000 35.834900 0.000000 0.000000 20.279400 1.568500 -8.981800 -7.662100 0.000000 -0.000000 -0.000000 0.000000 0.000000 -0.000000 1.074000 12.665300 -1.225700 31.556101 55.706501 -23.837200 -0.000000 -0.000000 -31.811701 2.208700 6.558700 7.697000 0.000000 -0.000000 0.000000 0.000000 -0.000000 0.000000 2.128300 1.802600 -15.307200 13.937000 0.000000 0.000000 -14.555500 -6.675900 -8.319000 0.356800 0.000000 0.000000 1.967500 -15.127200 7.141400 12.866500 0.000000 0.000000 -14.383500 12.218400 2.063100 -0.856800 0.000000 -0.000000 
-2.450400 36.379200 -6.811900 -89.997002 3.430200 1.143700 -0.929100 -1.647700 -0.667600 0.380400 0.222400 0.022100 0.957600 -3.235700 0.194400 -0.365500 -0.271700 0.259600 1.170800 1.045200 0.492700 -5.277000 2.639400 -2.638100 3.495800 -8.846800 0.601100 40.131302 -48.999001 35.872601 0.000000 0.000000 20.429300 1.609000 -8.979800 -7.703800 -0.000000 0.000000 -0.000000 0.000000 -0.000000 -0.000000 1.075400 12.664600 -1.245700 31.674601 55.735298 -23.962000 -0.000000 -0.000000 -31.834299 2.206500 6.510800 7.739700 -0.000000 0.000000 -0.000000 0.000000 -0.000000 -0.000000 2.092600 1.770800 -15.194200 13.959400 0.000000 0.000000 -14.562800 -6.664200 -8.317000 0.356500 0.000000 0.000000 1.982400 -15.159100 7.201000 12.901800 0.000000 0.000000 -14.424300 12.219700 2.119300 -0.850400 0.000000 -0.000000 
-2.456500 36.377701 -6.812500 -89.988098 3.456300 1.029100 -0.933200 -1.654500 -0.672900 0.374300 0.230000 0.022000 0.966100 -3.228000 0.157900 -0.361400 -0.272600 0.250900 1.177100 1.027500 0.520800 -5.286100 2.620800 -2.516900 3.483900 -8.841100 0.580500 40.179401 -49.024899 35.928600 0.000000 0.000000 20.603901 1.623300 -8.999200 -7.760900 0.000000 0.000000 -0.000000 0.000000 -0.000000 0.000000 1.074800 12.665600 -1.264700 31.796301 55.765598 -24.087400 -0.000000 -0.000000 -31.860600 2.204200 6.459800 7.797100 0.000000 0.000000 0.000000 0.000000 0.000000 0.000000 2.055700 1.741600 -15.082300 13.982700 0.000000 0.000000 -14.569900 -6.653300 -8.313200 0.356300 0.000000 0.000000 1.998100 -15.188100 7.259400 12.934600 0.000000 0.000000 -14.463900 12.220000 2.177600 -0.844300 0.000000 -0.000000 
-2.462600 36.376202 -6.813400 -89.978203 3.481000 0.915000 -0.938000 -1.661300 -0.678500 0.368600 0.238100 0.021900 0.975800 -3.220800 0.120200 -0.357100 -0.273000 0.242200 1.182100 1.009700 0.549100 -5.295500 2.602900 -2.392300 3.469300 -8.831400 0.567400 40.250900 -49.037998 36.005600 0.000000 0.000000 20.793501 1.607000 -9.028600 -7.813400 0.000000 -0.000000 -0.000000 -0.000000 0.000000 -0.000000 1.073100 12.667800 -1.280100 31.922300 55.794498 -24.216900 -0.000000 -0.000000 -31.890600 2.201100 6.412300 7.865400 -0.000000 0.000000 -0.000000 -0.000000 -0.000000 0.000000 2.017400 1.713900 -14.970900 14.006900 0.000000 0.000000 -14.577400 -6.642500 -8.309200 0.356200 0.000000 0.000000 2.013400 -15.215400 7.316900 12.965400 0.000000 0.000000 -14.501900 12.219800 2.236000 -0.838700 0.000000 -0.000000 
-2.468900 36.374699 -6.814400 -89.967102 3.504600 0.802400 -0.943400 -1.668500 -0.684300 0.363800 0.248700 0.022100 0.985900 -3.215100 0.080600 -0.352700 -0.273700 0.233800 1.186900 0.991400 0.576800 -5.306500 2.585700 -2.265600 3.452500 -8.819300 0.560200 40.339100 -49.040901 36.098801 0.000000 0.000000 20.997299 1.560600 -9.066500 -7.863200 0.000000 0.000000 -0.000000 0.000000 0.000000 -0.000000 1.069900 12.669400 -1.294100 32.052399 55.823799 -24.348900 -0.000000 -0.000000 -31.925100 2.198600 6.368000 7.945000 -0.000000 -0.000000 -0.000000 -0.000000 0.000000 0.000000 1.977300 1.686900 -14.860200 14.032100 0.000000 0.000000 -14.585400 -6.631200 -8.306400 0.356300 0.000000 0.000000 2.027100 -15.242000 7.373800 12.995100 0.000000 0.000000 -14.538000 12.219900 2.292900 -0.833300 0.000000 -0.000000 
-2.475200 36.373299 -6.815600 -89.955101 3.527200 0.690900 -0.948500 -1.675600 -0.690300 0.358900 0.260400 0.022400 0.996600 -3.211100 0.039800 -0.347900 -0.274100 0.225900 1.192300 0.973600 0.603700 -5.320100 2.568700 -2.139100 3.433900 -8.804600 0.558900 40.439701 -49.036499 36.205601 0.000000 0.000000 21.211100 1.485300 -9.107900 -7.903900 0.000000 -0.000000 -0.000000 -0.000000 0.000000 0.000000 1.066400 12.673300 -1.306800 32.183201 55.850800 -24.480000 -0.000000 -0.000000 -31.966400 2.197300 6.327800 8.034900 0.000000 -0.000000 -0.000000 -0.000000 -0.000000 -0.000000 1.935900 1.660700 -14.750100 14.057900 0.000000 0.000000 -14.593800 -6.619900 -8.303900 0.356400 0.000000 0.000000 2.039900 -15.267600 7.430300 13.023600 0.000000 0.000000 -14.572700 12.219800 2.348900 -0.828100 0.000000 -0.000000 
-2.481200 36.372002 -6.816900 -89.942497 3.548800 0.579800 -0.952700 -1.682300 -0.696100 0.353200 0.271400 0.022600 1.008200 -3.208600 -0.001400 -0.342700 -0.273400 0.218400 1.199300 0.956700 0.629500 -5.337400 2.551900 -2.014600 3.413300 -8.785700 0.562700 40.552299 -49.027000 36.326500 0.000000 0.000000 21.432800 1.384300 -9.147500 -7.937500 -0.000000 0.000000 -0.000000 0.000000 -0.000000 0.000000 1.061300 12.677100 -1.317700 32.315701 55.879398 -24.610901 -0.000000 -0.000000 -32.014301 2.200700 6.291600 8.133200 0.000000 0.000000 0.000000 -0.000000 -0.000000 0.000000 1.893900 1.636100 -14.641500 14.084300 0.000000 0.000000 -14.602100 -6.609100 -8.300500 0.356600 0.000000 0.000000 2.052600 -15.291600 7.486000 13.050900 0.000000 0.000000 -14.606700 12.219200 2.404800 -0.822900 0.000000 -0.000000 
